<?xml version="1.0" encoding="UTF-8"?>
<svg id="a" data-name="Laag 1" xmlns="http://www.w3.org/2000/svg" width="1338.294" height="329.281" viewBox="0 0 1338.294 329.281">
  <g>
    <path d="M131.982,71.858v186.209h52.698l5.223,5.223v60.769l-5.223,5.222H5.222l-5.222-5.222v-60.769l5.222-5.223h52.223V71.858H5.222l-5.222-5.222V5.867L5.222.646h179.458l5.223,5.222v60.769l-5.223,5.222h-52.698Z" fill="#2a1c43"/>
    <path d="M398.696.646c38.455,0,69.314,9.019,92.578,27.06,23.263,17.567,35.131,44.152,35.131,79.76v114.995c0,35.606-11.868,62.193-35.131,80.233-23.264,17.566-54.123,26.587-92.578,26.587h-123.176l-5.222-5.222V5.867l5.222-5.222h123.176ZM451.869,115.535c0-29.91-21.363-47.475-53.173-47.475h-53.862v193.806h53.862c31.809,0,53.173-17.567,53.173-47.477v-98.854Z" fill="#2a1c43"/>
    <path d="M848.646,250.884l5.223,5.223v67.952l-5.223,5.222h-238.802l-5.222-5.222V5.222l5.222-5.222h237.853l5.222,5.222v60.769l-5.222,5.222h-168.539v52.385h119.164l5.223,5.222v57.92l-5.223,5.222h-119.164v58.923h169.488Z" fill="#2a1c43"/>
    <path d="M1060.483.646c38.455,0,69.315,9.019,92.578,27.06,23.263,17.567,35.131,44.152,35.131,79.76v114.995c0,35.606-11.868,62.193-35.131,80.233-23.263,17.566-54.123,26.587-92.578,26.587h-123.176l-5.222-5.222V5.867l5.222-5.222h123.176ZM1113.656,115.535c0-29.91-21.363-47.475-53.173-47.475h-53.861v193.806h53.861c31.809,0,53.173-17.567,53.173-47.477v-98.854Z" fill="#2a1c43"/>
  </g>
  <path d="M1333.331,239.68l4.964,4.963v68.345l-4.513,4.963h-69.381l-4.964-4.963v-68.345l4.513-4.963h69.381Z" fill="#2a1c43"/>
  <path d="M1333.331,28.925l4.964,4.963v68.345l-4.513,4.963h-69.381l-4.964-4.963V33.888l4.513-4.963h69.381Z" fill="#2a1c43"/>
</svg>